<?xml version="1.0" encoding="UTF-8"?>
<svg fill="gray" viewBox="0 0 378 376" xmlns="http://www.w3.org/2000/svg">
<path d="m92.287 10.17c-1.8872 15.726-7.4439 34.913-10.17 34.913-0.7339 0-5.7664-2.0968-11.114-4.6131-8.5971-3.9841-21.703-7.9681-26.525-7.9681-1.2582 0-0.6291 1.8872 2.4114 8.073 4.6131 9.3311 8.8068 23.904 8.2826 28.937l-0.3145 3.355-9.4359 0.734c-27.469 2.0968-40.365 3.355-40.365 3.8792 0 0.4194 4.6131 5.347 10.275 11.113 10.589 10.694 18.348 22.122 17.823 26.106-0.2097 1.468-5.5567 5.871-16.565 13.525-8.9117 6.186-16.356 11.742-16.565 12.267-0.20969 0.524 0.94359 1.258 2.6211 1.677 11.218 2.412 16.041 3.984 20.025 6.291 5.4518 3.25 11.113 8.073 13.944 12.057l2.0969 2.935-11.743 11.638c-9.8553 9.855-11.533 11.848-10.275 13.001 0.8387 0.734 7.1293 3.145 14.049 5.242s13.001 4.299 13.525 4.823-0.3146 5.871-2.3066 13.21c-1.7823 6.815-2.9356 12.791-2.6211 13.315 0.5242 0.944 17.824 0.105 20.654-0.943 2.6211-0.944 3.6696 1.572 4.4035 9.855 0.4194 4.823 1.0484 8.912 1.4678 9.121 0.8387 0.525 12.581-4.508 12.581-5.347 0-0.314-1.363-2.516-3.0405-4.927-4.8228-7.025-8.073-14.259-11.114-24.324-1.4678-5.242-3.6695-12.267-4.7179-15.727-1.1533-3.459-2.3066-8.177-2.5163-10.484-1.4678-11.113-1.6775-15.202-0.629-15.202 0.5242 0 1.0484 1.782 1.0484 3.879 0.1048 4.718 2.4114 17.299 3.9841 21.807 0.629 1.678 2.6211 7.864 4.4034 13.63 4.2986 13.525 10.484 25.687 15.831 31.034 2.5163 2.516 7.9681 6.081 13.21 8.492l8.8068 4.089-0.314 3.879-0.315 3.88-23.38 7.758-23.38 7.863-3.0405 9.96c-1.6775 5.557-6.3954 22.018-10.589 36.696-4.1937 14.573-8.1778 27.154-8.8069 27.783-0.629 0.629-2.5162 6.291-4.0889 12.686-1.5726 6.291-3.0404 12.372-3.355 13.316-0.5242 1.782 3.6696 1.887 78.109 1.887 74.544 0 78.738-0.105 78.738-1.887 0-0.944-4.928-6.396-11.009-12.057-6.081-5.662-11.009-10.904-11.009-11.743 0-0.734 3.775-4.613 8.283-8.597 11.533-9.855 11.638-10.484 6.92-22.542-7.968-20.234-25.058-51.478-31.349-57.349-1.992-1.887-2.726-3.67-2.726-6.5 0-4.299 0.944-5.347 6.291-7.13 5.452-1.782 10.799-5.871 14.469-11.008 2.935-4.089 4.193-4.823 12.266-7.339 4.928-1.573 8.912-3.251 8.912-3.67 0-0.524-1.887-3.25-4.194-5.976-4.508-5.452-5.347-9.331-2.306-10.275 0.943-0.314 4.613-0.839 8.073-1.258 3.459-0.314 6.605-0.839 7.024-1.153 0.944-0.42-4.403-15.307-5.661-15.832-0.42-0.209-0.839-1.153-0.839-2.201 0-1.258 1.468-2.202 5.242-3.146 6.5-1.677 22.017-9.121 22.017-10.484 0-0.629-1.992-2.097-4.403-3.355-13.42-6.815-24.324-14.678-22.122-15.936 0.419-0.21 4.298-1.468 8.492-2.726s11.009-3.879 15.202-5.767c7.235-3.25 22.123-12.057 21.493-12.686-0.419-0.314-28.832-12.476-31.558-13.42-1.258-0.524-1.572-1.153-1.048-2.097 0.419-0.838 7.339-7.548 15.307-14.887 7.864-7.4443 14.364-13.84 14.364-14.259 0-0.8387-6.501-1.992-25.687-4.7179-6.92-1.0485-13.001-2.0969-13.42-2.5163-0.524-0.4194 4.299-9.6456 10.694-20.444 10.38-17.719 12.372-21.493 11.323-21.493-0.209 0-8.807 3.0405-19.081 6.8148-14.993 5.4519-19.082 6.5004-20.13 5.4519-2.307-2.3065-4.509-19.606-4.509-35.123v-14.993l-8.492 4.5083c-9.96 5.347-23.275 15.727-29.461 22.961-2.307 2.8307-4.718 5.1373-5.137 5.1373-0.525 0-4.509-4.8228-9.017-10.799-7.758-10.275-20.864-24.848-22.332-24.848-0.4194 0-1.2581 4.6131-1.8872 10.17zm2.9357 262.74c-3.8793 3.041-23.695 55.358-22.122 58.084 0.5242 0.943 5.0325 5.242 10.065 9.646 5.1374 4.403 9.436 8.492 9.6457 9.121 0.2096 0.629-1.0485 2.936-2.8308 5.137-1.6775 2.202-3.1453 3.355-3.1453 2.621 0-0.629 0.9435-2.516 2.2017-3.984l2.2017-2.83-10.065-9.436c-7.0245-6.606-10.065-10.17-10.065-11.848 0-3.355 11.952-35.437 19.291-51.897 1.7824-3.985 3.2502-5.977 4.5083-5.977 1.6775 0.105 1.6775 0.21 0.3146 1.363z"/>
<path d="m270.73 147.31c-29.461 5.347-45.712 16.984-66.785 48.123-4.613 6.71-4.928 7.549-4.928 14.049 0 5.032-1.048 9.96-3.774 18.452-4.613 14.364-4.404 17.719 2.201 28.937 2.621 4.404 4.718 8.598 4.718 9.122 0 0.629-1.363 2.621-3.145 4.508-5.557 5.976-5.452 15.202 0.315 21.388 3.355 3.46 11.218 6.71 13.315 5.347 0.524-0.314-0.21-2.726-1.573-5.452-1.468-2.621-2.621-5.556-2.516-6.5 0-1.048 0.524-0.734 1.153 0.944 1.782 3.879 10.065 16.67 14.154 21.702 8.073 10.065 25.477 20.235 41.728 24.534 4.928 1.258 13.63 2.411 20.969 2.726 6.919 0.314 11.637 0.943 10.484 1.363-6.291 2.201-35.228-1.888-48.543-6.92l-6.919-2.621-1.783 2.411c-6.605 8.702-14.154 28.518-16.041 41.938l-0.524 3.984h65.003c61.439 0 65.003-0.105 64.479-1.887-0.314-0.944-1.992-7.235-3.669-13.945-3.67-14.468-6.606-21.702-11.324-27.888-1.887-2.516-3.459-5.137-3.459-5.871 0.104-0.629 2.725-3.146 5.976-5.452 5.871-4.194 13.944-12.686 18.347-19.396 1.468-2.202 3.775-3.984 5.872-4.613 1.782-0.525 5.137-2.726 7.443-4.823 7.235-6.92 7.969-16.356 1.573-21.913-2.202-1.887-2.516-2.83-1.887-6.185 0.419-2.097 1.048-4.089 1.468-4.404 0.419-0.314 1.363-3.355 2.097-6.815 1.048-5.032 1.048-8.911 0-19.71-0.734-7.339-1.783-13.315-2.307-13.315s-0.839-2.936-0.734-6.606c0.21-5.766-0.314-7.548-4.089-14.887-5.032-9.961-12.476-20.864-20.025-29.042-4.613-5.033-7.654-7.025-19.501-12.896-8.387-4.089-16.985-7.549-21.178-8.387-8.702-1.888-26.526-1.888-36.591 0z"/>
<path d="m147.65 261.69c0 0.315 1.992 3.25 4.508 6.5 2.516 3.251 5.976 8.388 7.863 11.219 4.928 7.863 16.356 32.396 19.711 42.147 3.669 10.379 3.355 11.113-7.654 20.444-4.194 3.565-7.653 7.34-7.653 8.178 0 0.944 4.717 5.976 10.484 11.428 6.291 5.767 10.484 10.485 10.484 11.743 0 1.887 0.839 1.992 14.678 1.992 11.009 0 14.679-0.315 14.679-1.363 0-4.404-25.687-96.771-28.099-101.17-0.419-0.839-7.129-3.041-14.887-5.033-7.759-1.887-15.832-4.194-18.034-5.137-4.298-1.678-6.08-1.992-6.08-0.944z"/>
</svg>
