<?xml version="1.0" encoding="UTF-8"?>
<svg width="40" height="40" fill="black" viewBox="0 0 50 50" xmlns="http://www.w3.org/2000/svg">
<path d="m22.085 0.16052c-5.6828 0.74625-10.624 3.1094-14.578 6.9841-3.4116 3.339-5.7018 7.3668-6.8516 12.055-0.49415 2.0187-0.66521 3.5686-0.6557 5.836 0.0095029 4.1139 0.81725 7.5008 2.6703 11.232 1.8531 3.7121 4.78 7.0319 8.3531 9.4429 4.7705 3.2146 10.824 4.7645 16.288 4.1618 6.272-0.6985 11.28-3.0616 15.499-7.3381 5.7018-5.7882 8.0965-13.27 6.8801-21.612-0.7032-4.8984-3.5066-10.294-7.1462-13.786-3.44-3.2911-7.5738-5.5299-12.097-6.544-2.5943-0.57404-5.9298-0.75581-8.3626-0.43053zm5.9964 3.1572c6.8516 1.0046 12.905 5.4342 16.041 11.739 0.9503 1.9134 1.6345 4.0756 1.9766 6.1995 0.2376 1.4734 0.2376 5.4247 0 6.7928-0.6367 3.6164-1.9291 6.678-4.0957 9.6151-0.3612 0.4975-1.3019 1.5499-2.0812 2.3344l-1.4159 1.416 0.057 0.7367 0.057 0.7271-0.2756-1.0524c-0.3231-1.2533-0.6082-1.9517-1.0263-2.5066-0.171-0.2297-0.3136-0.4688-0.3136-0.5358 0.0095-0.0574 0.2471-0.287 0.5417-0.4975 0.5321-0.3827 1.2639-1.1577 1.663-1.77 0.1425-0.2009 0.3421-0.3635 0.5417-0.4209 0.4751-0.134 1.0168-0.6984 1.1403-1.1864 0.1331-0.4688 0.0855-0.6888-0.2376-1.1767l-0.2375-0.3445 0.209-0.9471c0.2091-0.9376 0.2091-0.9567 0.0475-2.4301-0.0855-0.8132-0.152-1.5977-0.152-1.7317 0-0.3348-0.7317-1.8082-1.3114-2.6214-0.9693-1.3777-1.3304-1.703-2.7369-2.3918-1.6345-0.8132-2.2331-0.9472-3.8867-0.8802-1.4444 0.0574-2.6608 0.3348-3.7726 0.8706-1.1214 0.5358-2.3948 1.8082-3.6206 3.6356-0.4182 0.6123-0.4467 0.6888-0.4467 1.282 0 0.4592-0.095 0.9089-0.3421 1.6838-0.4181 1.3107-0.3991 1.6169 0.1996 2.6406 0.2376 0.4018 0.4276 0.7845 0.4276 0.8323 0 0.0574-0.1235 0.2392-0.2851 0.4114-0.5036 0.5454-0.4941 1.3873 0.0285 1.9518 0.2946 0.3157 1.0168 0.6123 1.1974 0.4879 0.0475-0.0287 0.0095-0.2679-0.095-0.5262-0.2851-0.7558-0.2091-0.7845 0.1425-0.0478 0.6937 1.4733 1.6345 2.4205 3.1455 3.1667 1.1403 0.5549 2.1191 0.8037 3.5161 0.8706 0.6272 0.0287 1.0548 0.0861 0.9503 0.1244-0.5702 0.2009-3.193-0.1722-4.3999-0.6314l-0.6272-0.2392-0.1615 0.22c-0.3516 0.4593-1.0454 1.9805-1.2164 2.6597-0.095 0.3923-0.2281 1.1864-0.2946 1.7604-0.1901 1.7891-0.2661 1.9517-0.4656 0.8993-0.3326-1.7412-2.5658-9.9882-2.8414-10.486-0.038-0.0765-0.6367-0.2774-1.3304-0.4496-0.6937-0.1818-1.454-0.3923-1.6916-0.488-0.228-0.0861-0.4466-0.1339-0.4751-0.1052s0.133 0.3061 0.3611 0.6123c0.2281 0.3061 0.5512 0.7749 0.7222 1.0333 0.4467 0.7175 1.4825 2.9562 1.7866 3.846 0.3326 0.9472 0.3041 1.0141-0.6937 1.8656-0.3801 0.3253-0.6937 0.6602-0.6937 0.7463 0 0.0765 0.4371 0.5549 0.9693 1.0524 0.9217 0.8706 0.9598 0.928 0.8837 1.1959l-0.0855 0.287-0.038-0.2966c-0.019-0.2296-0.2471-0.4879-1.0168-1.2246-0.5512-0.5071-0.9978-0.9854-0.9978-1.062 0-0.0669 0.3421-0.4209 0.7507-0.7845 1.0453-0.8993 1.0548-0.9567 0.6272-2.057-0.7222-1.8464-2.2712-4.6975-2.8414-5.2333-0.1805-0.1722-0.2471-0.3348-0.2471-0.5931 0-0.3923 0.0856-0.488 0.5702-0.6506 0.4942-0.1626 0.9788-0.5358 1.3114-1.0046 0.2661-0.3731 0.3801-0.4401 1.1119-0.6697 0.4466-0.1435 0.8077-0.2966 0.8077-0.3348 0-0.0479-0.171-0.2966-0.3801-0.5454-0.4086-0.4975-0.4847-0.8514-0.2091-0.9375 0.0856-0.0287 0.4182-0.0766 0.7318-0.1149 0.3136-0.0287 0.5986-0.0765 0.6367-0.1052 0.038-0.0191-0.0571-0.3827-0.2091-0.8036-0.1616-0.421-0.2851-0.8228-0.2851-0.8802 0-0.067 0.2471-0.1914 0.5512-0.2966 0.6747-0.2201 1.8245-0.7941 1.8245-0.9089 0-0.0478-0.3516-0.2775-0.7697-0.5071-0.8268-0.4401-1.663-1.1098-1.5395-1.2246 0.038-0.0383 0.3801-0.1722 0.7412-0.287 0.9123-0.3062 1.8816-0.7558 2.6419-1.2438 0.3516-0.22 0.6367-0.4209 0.6177-0.4305-0.0381-0.0287-2.6133-1.1385-2.8604-1.2246-0.1141-0.0478-0.1426-0.1052-0.0951-0.1913 0.0381-0.0766 0.6653-0.6889 1.3875-1.3586 0.7127-0.6793 1.3019-1.2629 1.3019-1.3011 0-0.0766-0.5892-0.1818-2.3282-0.4306-0.6272-0.0956-1.1784-0.1913-1.2164-0.2296-0.0475-0.0382 0.3896-0.8802 0.9693-1.8656 0.9408-1.6169 1.1213-1.9613 1.0263-1.9613-0.019 0-0.7983 0.2775-1.7295 0.6219-1.359 0.4975-1.7296 0.5932-1.8246 0.4975-0.2091-0.2105-0.4086-1.7891-0.4086-3.2051v-1.3681l-0.7698 0.41139c-0.9027 0.48798-2.1096 1.4351-2.6703 2.0953-0.2091 0.2583-0.4276 0.4688-0.4656 0.4688-0.0476 0-0.4087-0.4401-0.8173-0.9855-0.7032-0.9376-1.8911-2.2674-2.0241-2.2674-0.038 0-0.1141 0.42096-0.1711 0.92802-0.171 1.4351-0.6747 3.1859-0.9218 3.1859-0.0665 0-0.5226-0.1913-1.0073-0.421-0.7792-0.3635-1.9671-0.7271-2.4042-0.7271-0.114 0-0.057 0.1722 0.2186 0.7367 0.4181 0.8515 0.7982 2.1814 0.7507 2.6406l-0.0285 0.3061-0.8553 0.067c-2.4898 0.1914-3.6586 0.3062-3.6586 0.354 0 0.0383 0.41813 0.4879 0.93129 1.0141 0.95979 0.9759 1.663 2.0187 1.6155 2.3823-0.019 0.1339-0.50365 0.5357-1.5015 1.2342-0.80775 0.5644-1.4825 1.0715-1.5015 1.1193-0.01901 0.0479 0.08552 0.1148 0.23757 0.1531 1.0168 0.22 1.454 0.3636 1.8151 0.574 0.49415 0.2966 1.0073 0.7367 1.2639 1.1003l0.19 0.2679-1.0643 1.0619c-0.89328 0.8993-1.0453 1.0811-0.93129 1.1864 0.07603 0.0669 0.6462 0.287 1.2734 0.4783 0.62719 0.1914 1.1784 0.3923 1.2259 0.4401 0.0475 0.0479-0.0285 0.5358-0.2091 1.2055-0.1615 0.6219-0.2661 1.1672-0.2376 1.215 0.0476 0.0861 1.6155 0.0096 1.8721-0.0861 0.2376-0.0861 0.3326 0.1435 0.3992 0.8994 0.038 0.4401 0.095 0.8132 0.133 0.8323 0.076 0.0478 1.1403-0.4114 1.1403-0.4879 0-0.0287-0.1235-0.2296-0.2755-0.4497-0.6367-0.9376-1.0739-2.1143-1.416-3.846-0.228-1.1003-0.3326-2.1527-0.2185-2.1527 0.038 0 0.1045 0.3062 0.1425 0.6793 0.1901 2.1335 1.1689 4.8411 2.0621 5.7404 0.2281 0.2296 0.7223 0.5549 1.1974 0.7749l0.7983 0.3731-0.0286 0.354-0.0285 0.354-2.1096 0.708-2.1097 0.708-0.19 0.5836c-0.1046 0.3253-0.5417 1.8082-0.9598 3.3103-0.77927 2.7266-1.0168 3.4155-0.9028 2.6023 0.04751-0.4019 0.0285-0.4401-0.45615-0.9759-3.0314-3.2911-4.9035-7.1468-5.6352-11.624-0.27558-1.636-0.24707-5.1377 0.04752-6.745 0.82675-4.5157 2.6513-8.1991 5.6352-11.347 4.8655-5.1185 11.679-7.472 18.711-6.4483zm-12.858 30.921c-0.6842 1.4256-1.9006 4.8411-1.7961 5.0229 0.0475 0.0861 0.4562 0.4783 0.9123 0.8801 0.4656 0.4019 0.8553 0.775 0.8743 0.842 0.0285 0.0669-0.1141 0.2774-0.3136 0.4783-0.2091 0.2201-0.2851 0.2679-0.1901 0.1244 0.3706-0.5836 0.3991-0.5071-0.5607-1.3968-0.6462-0.6028-0.9027-0.8993-0.9027-1.062 0-0.4975 1.8815-5.2907 2.0811-5.2907 0.0475 0 0 0.1818-0.1045 0.4018z"/>
</svg>
